# xmcd CD database file
#
# Track frame offsets:
#	150
#	18112
#	40537
#	74665
#	103612
#	132187
#	156525
#	203035
#	223887
#
# Disc length: 3295 seconds
#
# Revision: 8
# Processed by: cddbd v1.4PL0 Copyright (c) Steve Scherf et al.
# Submitted via: CDex 1.51
#
DISCID=7f0cdd09
DTITLE=Zimbo Trio - Tributo a Elis Regina
DYEAR=2003
DGENRE=Jazz
TTITLE0=Madalena
TTITLE1=Menino das Laranjas
TTITLE2=Pot_pourri - Tempo Feliz_Zambi_Este Mundo é meu
TTITLE3=Atrás da Porta
TTITLE4=Sou sem paz
TTITLE5=Arrastão
TTITLE6=O morro não tem vez
TTITLE7=Romaria
TTITLE8=Águas de março
EXTD=YEAR: 2003
EXTT0=
EXTT1=
EXTT2=
EXTT3=
EXTT4=
EXTT5=
EXTT6=
EXTT7=
EXTT8=
PLAYORDER=
